# xmcd
#
# Track frame offsets:
#	150
#	20682
#	36227
#	54760
#	70265
#	88045
#	106822
#	132252
#	147675
#	171450
#	185795
#	206777
#	225787
#	247005
#	269177
#	288257
#
# Disc length: 4099 seconds
#
# Revision: 4
# Processed by: cddbd v1.5PL3 Copyright (c) Steve Scherf et al.
# Submitted via: CDex 1.50Beta5
#
DISCID=f7100110
DTITLE=Arrested Development - The Greatest
DYEAR=1900
DGENRE=Hip Hop
TTITLE0=Tennessee
TTITLE1=People Everyday
TTITLE2=Mr Wendal
TTITLE3=Mama's Always On Stage
TTITLE4=Raining Revolution
TTITLE5=Fishin' 4 Religion
TTITLE6=Arrested Development Arrested Development Pride
TTITLE7=Shell
TTITLE8=Arrested Development Arrested Development United Minds
TTITLE9=Africa's Inside Me
TTITLE10=United Front
TTITLE11=Ease My Mind
TTITLE12=Arrested Development Arrested Development Tennessee(Remix)
TTITLE13=People Everyday(Metamorphosis Mix)
TTITLE14=Natural(The Natural Way)
TTITLE15=Revolution(Another Perspective)
EXTD=
EXTT0=
EXTT1=
EXTT2=
EXTT3=
EXTT4=
EXTT5=
EXTT6=
EXTT7=
EXTT8=
EXTT9=
EXTT10=
EXTT11=
EXTT12=
EXTT13=
EXTT14=
EXTT15=
PLAYORDER=
